<?xml version="1.0" encoding="UTF-8"?>
<svg id="Layer_1" xmlns="http://www.w3.org/2000/svg" viewBox="0 0 556 667">
  <defs>
    <style>
      .cls-1 {
        fill: #5a332c;
      }

      .cls-2 {
        fill: #fff;
      }
    </style>
  </defs>
  <g>
    <path class="cls-1" d="M164.33,322.05s52.24-9.39,60.3,5.37c8.05,14.76-4.03,26.84-4.03,26.84h-46.21s-20.7-18.79-10.06-32.21Z"/>
    <path class="cls-1" d="M405.51,322.05s-52.24-9.39-60.3,5.37c-8.05,14.76,4.03,26.84,4.03,26.84h46.21s20.7-18.79,10.06-32.21Z"/>
    <path class="cls-1" d="M377.77,483.24c-15.27,7.64-83.68,15.27-90.66-2.29-6.98,17.57-75.39,9.93-90.66,2.29-16.1-8.05-10.74-29.52-4.03-36.23,6.71-6.71,13.42,1.34,13.42,1.34-9.39,18.79,10.74,25.5,10.74,25.5,69.78,8.05,56.36-18.79,56.36-18.79-40.26-1.34-22.81-104.67-22.81-115.4s-17.36-27.19-17.36-27.19c8.15-11.08,10.65-6.36,10.65-6.36,34.89,5.37,26.84,61.73,26.84,61.73,1.95-2.93,11.65-3.02,16.84-2.84h.03c5.19-.17,14.89-.08,16.84,2.84,0,0-8.05-56.36,26.84-61.73,0,0,2.51-4.72,10.65,6.36,0,0-17.36,16.45-17.36,27.19s17.44,114.06-22.81,115.4c0,0-13.42,26.84,56.36,18.79,0,0,20.13-6.71,10.74-25.5,0,0,6.71-8.05,13.42-1.34,6.71,6.71,12.08,28.18-4.03,36.23Z"/>
    <path class="cls-1" d="M121.7,188.59c26.42-28.97,51.01-11.54,62-.54l6.05-6.44s-39.27-55.23-82.56-7.75,11.17,83.79,11.17,83.79l5.49-5.85c-11.01-10.55-28.44-34.38-2.16-63.2Z"/>
    <path class="cls-1" d="M443.01,184.56c-26.42-28.97-51.01-11.54-62-.54l-6.05-6.44s39.27-55.23,82.56-7.75c43.29,47.48-11.17,83.79-11.17,83.79l-5.49-5.85c11.01-10.55,28.44-34.38,2.16-63.2Z"/>
    <path class="cls-1" d="M340.14,6.09v12.5c0,3.36-2.73,6.09-6.09,6.09h-23.36c-3.36,0-6.09,2.73-6.09,6.09v90.94c0,3.36-2.73,6.09-6.09,6.09h-18.28c-3.36,0-6.09-2.73-6.09-6.09V30.77c0-3.36-2.73-6.09-6.09-6.09h-23.36c-3.36,0-6.09-2.73-6.09-6.09V6.09c0-3.36,2.73-6.09,6.09-6.09h89.36c3.36,0,6.09,2.73,6.09,6.09Z"/>
    <path class="cls-1" d="M518.75,90.28l-3.69,5.27c-.99,1.42-3.44,1.42-5.46,0l-14.06-9.84c-2.02-1.42-4.47-1.42-5.46,0l-26.83,38.33c-.99,1.42-3.44,1.42-5.46,0l-11-7.7c-2.02-1.42-2.86-3.71-1.87-5.13l26.83-38.33c.99-1.42.16-3.72-1.87-5.13l-14.06-9.84c-2.02-1.42-2.86-3.71-1.87-5.13l3.69-5.27c.99-1.42,3.44-1.42,5.46,0l53.78,37.64c2.02,1.42,2.86,3.71,1.87,5.13Z"/>
    <path class="cls-1" d="M552.66,380.06l-6.43.02c-1.73,0-3.14-1.99-3.15-4.46l-.05-17.16c0-2.47-1.42-4.47-3.15-4.46l-46.79.14c-1.73,0-3.14-1.99-3.15-4.46l-.04-13.43c0-2.47,1.39-4.48,3.12-4.48l46.79-.14c1.73,0,3.13-2.01,3.12-4.48l-.05-17.16c0-2.47,1.39-4.48,3.12-4.48l6.43-.02c1.73,0,3.14,1.99,3.15,4.46l.19,65.64c0,2.47-1.39,4.48-3.12,4.48Z"/>
    <path class="cls-1" d="M.12,375.58l.19-65.64c0-2.47,1.42-4.47,3.15-4.46l6.43.02c1.73,0,3.13,2.01,3.12,4.48l-.05,17.16c0,2.47,1.39,4.48,3.12,4.48l46.79.14c1.73,0,3.13,2.01,3.12,4.48l-.04,13.43c0,2.47-1.42,4.47-3.15,4.46l-46.79-.14c-1.73,0-3.14,1.99-3.15,4.46l-.05,17.16c0,2.47-1.42,4.47-3.15,4.46l-6.43-.02c-1.73,0-3.13-2.01-3.12-4.48Z"/>
    <path class="cls-1" d="M516.89,552.04l-53.78,37.64c-2.02,1.42-4.47,1.42-5.46,0l-3.69-5.27c-.99-1.42-.16-3.72,1.87-5.13l14.06-9.84c2.02-1.42,2.86-3.71,1.87-5.13l-26.83-38.33c-.99-1.42-.16-3.72,1.87-5.13l11-7.7c2.02-1.42,4.47-1.42,5.46,0l26.83,38.33c.99,1.42,3.44,1.42,5.46,0l14.06-9.84c2.02-1.42,4.47-1.42,5.46,0l3.69,5.27c.99,1.42.16,3.72-1.87,5.13Z"/>
    <path class="cls-1" d="M54.96,85.15l53.78-37.64c2.02-1.42,4.47-1.42,5.46,0l3.69,5.27c.99,1.42.16,3.72-1.87,5.13l-14.06,9.84c-2.02,1.42-2.86,3.71-1.87,5.13l26.83,38.33c.99,1.42.16,3.72-1.87,5.13l-11,7.7c-2.02,1.42-4.47,1.42-5.46,0l-26.83-38.33c-.99-1.42-3.44-1.42-5.46,0l-14.06,9.84c-2.02,1.42-4.47,1.42-5.46,0l-3.69-5.27c-.99-1.42-.16-3.72,1.87-5.13Z"/>
    <path class="cls-1" d="M53.09,546.9l3.69-5.27c.99-1.42,3.44-1.42,5.46,0l14.06,9.84c2.02,1.42,4.47,1.42,5.46,0l26.83-38.33c.99-1.42,3.44-1.42,5.46,0l11,7.7c2.02,1.42,2.86,3.71,1.87,5.13l-26.83,38.33c-.99,1.42-.16,3.72,1.87,5.13l14.06,9.84c2.02,1.42,2.86,3.71,1.87,5.13l-3.69,5.27c-.99,1.42-3.44,1.42-5.46,0l-53.78-37.64c-2.02-1.42-2.86-3.71-1.87-5.13Z"/>
    <path class="cls-1" d="M334.05,667.24h-89.36c-3.36,0-6.09-2.73-6.09-6.09v-12.5c0-3.36,2.73-6.09,6.09-6.09h23.36c3.36,0,6.09-2.73,6.09-6.09v-90.94c0-3.36,2.73-6.09,6.09-6.09h18.28c3.36,0,6.09,2.73,6.09,6.09v90.94c0,3.36,2.73,6.09,6.09,6.09h23.36c3.36,0,6.09,2.73,6.09,6.09v12.5c0,3.36-2.73,6.09-6.09,6.09Z"/>
  </g>
  <g>
    <path class="cls-2" d="M164.33,322.05s52.24-9.39,60.3,5.37c8.05,14.76-4.03,26.84-4.03,26.84h-46.21s-20.7-18.79-10.06-32.21Z"/>
    <path class="cls-2" d="M405.51,322.05s-52.24-9.39-60.3,5.37c-8.05,14.76,4.03,26.84,4.03,26.84h46.21s20.7-18.79,10.06-32.21Z"/>
    <path class="cls-2" d="M377.77,483.24c-15.27,7.64-83.68,15.27-90.66-2.29-6.98,17.57-75.39,9.93-90.66,2.29-16.1-8.05-10.74-29.52-4.03-36.23,6.71-6.71,13.42,1.34,13.42,1.34-9.39,18.79,10.74,25.5,10.74,25.5,69.78,8.05,56.36-18.79,56.36-18.79-40.26-1.34-22.81-104.67-22.81-115.4s-17.36-27.19-17.36-27.19c8.15-11.08,10.65-6.36,10.65-6.36,34.89,5.37,26.84,61.73,26.84,61.73,1.95-2.93,11.65-3.02,16.84-2.84h.03c5.19-.17,14.89-.08,16.84,2.84,0,0-8.05-56.36,26.84-61.73,0,0,2.51-4.72,10.65,6.36,0,0-17.36,16.45-17.36,27.19s17.44,114.06-22.81,115.4c0,0-13.42,26.84,56.36,18.79,0,0,20.13-6.71,10.74-25.5,0,0,6.71-8.05,13.42-1.34,6.71,6.71,12.08,28.18-4.03,36.23Z"/>
    <path class="cls-2" d="M121.7,188.59c26.42-28.97,51.01-11.54,62-.54l6.05-6.44s-39.27-55.23-82.56-7.75,11.17,83.79,11.17,83.79l5.49-5.85c-11.01-10.55-28.44-34.38-2.16-63.2Z"/>
    <path class="cls-2" d="M443.01,184.56c-26.42-28.97-51.01-11.54-62-.54l-6.05-6.44s39.27-55.23,82.56-7.75c43.29,47.48-11.17,83.79-11.17,83.79l-5.49-5.85c11.01-10.55,28.44-34.38,2.16-63.2Z"/>
    <path class="cls-2" d="M340.14,6.09v12.5c0,3.36-2.73,6.09-6.09,6.09h-23.36c-3.36,0-6.09,2.73-6.09,6.09v90.94c0,3.36-2.73,6.09-6.09,6.09h-18.28c-3.36,0-6.09-2.73-6.09-6.09V30.77c0-3.36-2.73-6.09-6.09-6.09h-23.36c-3.36,0-6.09-2.73-6.09-6.09V6.09c0-3.36,2.73-6.09,6.09-6.09h89.36c3.36,0,6.09,2.73,6.09,6.09Z"/>
    <path class="cls-2" d="M518.75,90.28l-3.69,5.27c-.99,1.42-3.44,1.42-5.46,0l-14.06-9.84c-2.02-1.42-4.47-1.42-5.46,0l-26.83,38.33c-.99,1.42-3.44,1.42-5.46,0l-11-7.7c-2.02-1.42-2.86-3.71-1.87-5.13l26.83-38.33c.99-1.42.16-3.72-1.87-5.13l-14.06-9.84c-2.02-1.42-2.86-3.71-1.87-5.13l3.69-5.27c.99-1.42,3.44-1.42,5.46,0l53.78,37.64c2.02,1.42,2.86,3.71,1.87,5.13Z"/>
    <path class="cls-2" d="M552.66,380.06l-6.43.02c-1.73,0-3.14-1.99-3.15-4.46l-.05-17.16c0-2.47-1.42-4.47-3.15-4.46l-46.79.14c-1.73,0-3.14-1.99-3.15-4.46l-.04-13.43c0-2.47,1.39-4.48,3.12-4.48l46.79-.14c1.73,0,3.13-2.01,3.12-4.48l-.05-17.16c0-2.47,1.39-4.48,3.12-4.48l6.43-.02c1.73,0,3.14,1.99,3.15,4.46l.19,65.64c0,2.47-1.39,4.48-3.12,4.48Z"/>
    <path class="cls-2" d="M.12,375.58l.19-65.64c0-2.47,1.42-4.47,3.15-4.46l6.43.02c1.73,0,3.13,2.01,3.12,4.48l-.05,17.16c0,2.47,1.39,4.48,3.12,4.48l46.79.14c1.73,0,3.13,2.01,3.12,4.48l-.04,13.43c0,2.47-1.42,4.47-3.15,4.46l-46.79-.14c-1.73,0-3.14,1.99-3.15,4.46l-.05,17.16c0,2.47-1.42,4.47-3.15,4.46l-6.43-.02c-1.73,0-3.13-2.01-3.12-4.48Z"/>
    <path class="cls-2" d="M516.89,552.04l-53.78,37.64c-2.02,1.42-4.47,1.42-5.46,0l-3.69-5.27c-.99-1.42-.16-3.72,1.87-5.13l14.06-9.84c2.02-1.42,2.86-3.71,1.87-5.13l-26.83-38.33c-.99-1.42-.16-3.72,1.87-5.13l11-7.7c2.02-1.42,4.47-1.42,5.46,0l26.83,38.33c.99,1.42,3.44,1.42,5.46,0l14.06-9.84c2.02-1.42,4.47-1.42,5.46,0l3.69,5.27c.99,1.42.16,3.72-1.87,5.13Z"/>
    <path class="cls-2" d="M54.96,85.15l53.78-37.64c2.02-1.42,4.47-1.42,5.46,0l3.69,5.27c.99,1.42.16,3.72-1.87,5.13l-14.06,9.84c-2.02,1.42-2.86,3.71-1.87,5.13l26.83,38.33c.99,1.42.16,3.72-1.87,5.13l-11,7.7c-2.02,1.42-4.47,1.42-5.46,0l-26.83-38.33c-.99-1.42-3.44-1.42-5.46,0l-14.06,9.84c-2.02,1.42-4.47,1.42-5.46,0l-3.69-5.27c-.99-1.42-.16-3.72,1.87-5.13Z"/>
    <path class="cls-2" d="M53.09,546.9l3.69-5.27c.99-1.42,3.44-1.42,5.46,0l14.06,9.84c2.02,1.42,4.47,1.42,5.46,0l26.83-38.33c.99-1.42,3.44-1.42,5.46,0l11,7.7c2.02,1.42,2.86,3.71,1.87,5.13l-26.83,38.33c-.99,1.42-.16,3.72,1.87,5.13l14.06,9.84c2.02,1.42,2.86,3.71,1.87,5.13l-3.69,5.27c-.99,1.42-3.44,1.42-5.46,0l-53.78-37.64c-2.02-1.42-2.86-3.71-1.87-5.13Z"/>
    <path class="cls-2" d="M334.05,667.24h-89.36c-3.36,0-6.09-2.73-6.09-6.09v-12.5c0-3.36,2.73-6.09,6.09-6.09h23.36c3.36,0,6.09-2.73,6.09-6.09v-90.94c0-3.36,2.73-6.09,6.09-6.09h18.28c3.36,0,6.09,2.73,6.09,6.09v90.94c0,3.36,2.73,6.09,6.09,6.09h23.36c3.36,0,6.09,2.73,6.09,6.09v12.5c0,3.36-2.73,6.09-6.09,6.09Z"/>
  </g>
</svg>